<svg width="97" height="167" viewBox="0 0 97 167" fill="none" xmlns="http://www.w3.org/2000/svg">
<path d="M12.2695 2.91472V10.6172L86.8163 10.6172V2.91472L12.2695 2.91472Z" stroke="#040306" stroke-width="0.222557" stroke-miterlimit="10" stroke-linecap="round" stroke-linejoin="round"/>
<path d="M12.2695 6.51054L12.2695 8.55469L86.8041 8.55469L86.8041 6.51054L12.2695 6.51054Z" stroke="#040306" stroke-width="0.222557" stroke-miterlimit="10" stroke-linecap="round" stroke-linejoin="round"/>
<path d="M75.4198 148.01V166.2C75.4198 166.2 59.3519 166.014 57.2969 147.824" stroke="#040306" stroke-width="0.222557" stroke-miterlimit="10" stroke-linecap="round" stroke-linejoin="round"/>
<path d="M50.9923 122.872H67.4292C67.4292 122.872 67.2612 109.07 50.8242 107.305" stroke="#040306" stroke-width="0.222557" stroke-miterlimit="10" stroke-linecap="round" stroke-linejoin="round"/>
<path d="M4.97656 62.6641H6.95191" stroke="#040306" stroke-width="0.222557" stroke-linecap="round" stroke-linejoin="round"/>
<path d="M10.8047 62.6641H47.4283" stroke="#040306" stroke-width="0.222557" stroke-linecap="round" stroke-linejoin="round" stroke-dasharray="3.88 3.88"/>
<path d="M49.3594 62.6641H51.333V64.5524" stroke="#040306" stroke-width="0.222557" stroke-linecap="round" stroke-linejoin="round"/>
<path d="M51.332 68.1836V88.1477" stroke="#040306" stroke-width="0.222557" stroke-linecap="round" stroke-linejoin="round" stroke-dasharray="3.82 3.82"/>
<path d="M51.332 89.9648V91.8532" stroke="#040306" stroke-width="0.222557" stroke-linecap="round" stroke-linejoin="round"/>
<path d="M51.332 101.465H53.3056" stroke="#040306" stroke-width="0.222557" stroke-linecap="round" stroke-linejoin="round"/>
<path d="M57.9531 101.465H74.2203" stroke="#040306" stroke-width="0.222557" stroke-linecap="round" stroke-linejoin="round" stroke-dasharray="4.68 4.68"/>
<path d="M76.5469 101.465H78.5205" stroke="#040306" stroke-width="0.222557" stroke-linecap="round" stroke-linejoin="round"/>
<path d="M51.3352 91.8555H4.98047V93.9709H51.3352V91.8555Z" fill="#040306"/>
<path d="M51.3359 91.8555H49.3086V107.022H51.3359V91.8555Z" fill="#040306"/>
<path d="M51.3377 123.688H49.3555V134.709H51.3377V123.688Z" fill="#040306"/>
<path d="M9.31245 95.5586H8.39062V133.121H9.31245V95.5586Z" fill="#040306"/>
<path d="M49.8555 95.5586H8.39062V96.3958H49.8555V95.5586Z" fill="#040306"/>
<path d="M31.7052 132.238H30.7383V134.486H31.7052V132.238Z" fill="#040306"/>
<path d="M31.7066 132.238H8.39062V133.12H31.7066V132.238Z" fill="#040306"/>
<path d="M92.2555 99.7891H78.5234V101.465H92.2555V99.7891Z" fill="#040306"/>
<g opacity="0.8">
<path opacity="0.8" d="M18.7726 79.1172H5.34375V91.9657H18.7726V79.1172Z" stroke="#040306" stroke-width="0.11127" stroke-miterlimit="10" stroke-linecap="round" stroke-linejoin="round"/>
<path opacity="0.8" d="M12.0653 87.6843C12.6213 87.6843 13.0721 87.253 13.0721 86.721C13.0721 86.1891 12.6213 85.7578 12.0653 85.7578C11.5093 85.7578 11.0586 86.1891 11.0586 86.721C11.0586 87.253 11.5093 87.6843 12.0653 87.6843Z" stroke="#040306" stroke-width="0.11127" stroke-miterlimit="10" stroke-linecap="round" stroke-linejoin="round"/>
<path opacity="0.8" d="M12.0674 90.4134C12.2837 90.4134 12.459 90.2457 12.459 90.0387C12.459 89.8318 12.2837 89.6641 12.0674 89.6641C11.8511 89.6641 11.6758 89.8318 11.6758 90.0387C11.6758 90.2457 11.8511 90.4134 12.0674 90.4134Z" stroke="#040306" stroke-width="0.11127" stroke-miterlimit="10" stroke-linecap="round" stroke-linejoin="round"/>
<path opacity="0.8" d="M15.9619 90.4134C16.1782 90.4134 16.3535 90.2457 16.3535 90.0387C16.3535 89.8318 16.1782 89.6641 15.9619 89.6641C15.7456 89.6641 15.5703 89.8318 15.5703 90.0387C15.5703 90.2457 15.7456 90.4134 15.9619 90.4134Z" stroke="#040306" stroke-width="0.11127" stroke-miterlimit="10" stroke-linecap="round" stroke-linejoin="round"/>
<path opacity="0.8" d="M17.6026 80.1875H6.50945C6.48173 80.1875 6.46094 80.2091 6.46094 80.2339V90.8476C6.46094 90.8741 6.48346 90.894 6.50945 90.894H17.6026C17.6303 90.894 17.6511 90.8725 17.6511 90.8476V80.2339C17.6528 80.2074 17.6303 80.1875 17.6026 80.1875Z" stroke="#040306" stroke-width="0.11127" stroke-miterlimit="10" stroke-linecap="round" stroke-linejoin="round"/>
<path opacity="0.8" d="M17.0496 80.7227H7.07586C7.04814 80.7227 7.02734 80.7442 7.02734 80.7691V89.2408C7.02734 89.2673 7.04987 89.2872 7.07586 89.2872H17.0496C17.0773 89.2872 17.0981 89.2657 17.0981 89.2408V80.7691C17.0999 80.7442 17.0773 80.7227 17.0496 80.7227Z" stroke="#040306" stroke-width="0.11127" stroke-miterlimit="10" stroke-linecap="round" stroke-linejoin="round"/>
</g>
<g opacity="0.8">
<path opacity="0.8" d="M27.3148 102.578V96.3047H9.41016V113.435H15.9686V112.631H10.3337V100.365L13.6294 97.1088H26.3652V102.578H27.3148Z" stroke="#040306" stroke-width="0.11127" stroke-miterlimit="10" stroke-linecap="round" stroke-linejoin="round"/>
<path opacity="0.8" d="M15.9688 113.436C22.2344 113.436 27.3148 108.575 27.3148 102.578" stroke="#040306" stroke-width="0.11127" stroke-miterlimit="10" stroke-linecap="round" stroke-linejoin="round"/>
<path opacity="0.8" d="M14.5437 100.707L13.2805 99.498L13.2268 99.4449L12.6654 98.9078C12.6654 98.9078 12.3968 98.6674 12.1594 98.8945C11.9238 99.1216 12.175 99.3769 12.175 99.3769L12.7347 99.9141L12.7902 99.9671L14.0533 101.176C14.0533 101.176 14.3219 101.416 14.5593 101.191C14.795 100.964 14.5437 100.707 14.5437 100.707Z" stroke="#040306" stroke-width="0.11127" stroke-miterlimit="10" stroke-linecap="round" stroke-linejoin="round"/>
<path opacity="0.8" d="M17.5628 102.823C17.9839 103.226 17.9839 103.899 17.5628 104.302C17.14 104.706 16.4382 104.706 16.0189 104.302C15.5979 103.899 15.5979 103.227 16.0189 102.823C16.4365 102.418 17.14 102.418 17.5628 102.823Z" stroke="#040306" stroke-width="0.11127" stroke-miterlimit="10" stroke-linecap="round" stroke-linejoin="round"/>
<path opacity="0.8" d="M12.1566 98.8932C12.3923 98.6678 12.6626 98.9065 12.6626 98.9065L13.101 99.3259C13.4354 98.9844 13.7317 98.6296 13.9292 98.3163C14.028 98.1605 14.1181 98.0013 14.1996 97.8388C14.2567 97.7228 14.2377 97.5918 14.1528 97.5089C13.9778 97.3763 13.8028 97.242 13.6277 97.1094C13.4389 97.2967 13.25 97.4824 13.0611 97.6697C13.0698 97.6764 13.0819 97.6863 13.0906 97.7029C13.1582 97.8173 12.9884 98.0345 12.8913 98.1273C12.1116 98.875 11.8343 99.1253 11.3942 99.5614C11.318 99.6376 11.1031 99.8548 10.9766 99.8001C10.9576 99.7918 10.9437 99.7785 10.9368 99.7703C10.7358 99.9692 10.533 100.168 10.332 100.367C10.4724 100.51 10.6093 100.624 10.7496 100.767C10.8345 100.846 10.9662 100.868 11.0858 100.815C11.2695 100.733 11.4462 100.639 11.6177 100.54C11.9244 100.359 12.2727 100.095 12.6089 99.7968L12.1705 99.3773C12.1722 99.3757 11.921 99.1204 12.1566 98.8932Z" stroke="#040306" stroke-width="0.11127" stroke-miterlimit="10" stroke-linecap="round" stroke-linejoin="round"/>
<path opacity="0.8" d="M15.5737 102.16C16.2755 101.488 16.2755 100.399 15.5737 99.726C14.9551 99.1342 14.0004 99.0646 13.3003 99.5155L14.5427 100.704C14.5427 100.704 14.794 100.961 14.5583 101.188C14.3209 101.414 14.0524 101.173 14.0524 101.173L12.81 99.9847C12.3387 100.654 12.4114 101.568 13.03 102.16C13.7335 102.831 14.8702 102.831 15.5737 102.16Z" stroke="#040306" stroke-width="0.11127" stroke-miterlimit="10" stroke-linecap="round" stroke-linejoin="round"/>
</g>
<g opacity="0.8">
<path opacity="0.8" d="M11.4728 124.546C11.6757 124.546 11.8402 124.388 11.8402 124.193C11.8402 123.998 11.6757 123.84 11.4728 123.84C11.2699 123.84 11.1055 123.998 11.1055 124.193C11.1055 124.388 11.2699 124.546 11.4728 124.546Z" stroke="#040306" stroke-width="0.11127" stroke-miterlimit="10" stroke-linecap="round" stroke-linejoin="round"/>
<path opacity="0.8" d="M11.4727 124.809V124.547" stroke="#040306" stroke-width="0.11127" stroke-miterlimit="10" stroke-linecap="round" stroke-linejoin="round"/>
<path opacity="0.8" d="M11.4727 123.842V123.578" stroke="#040306" stroke-width="0.11127" stroke-miterlimit="10" stroke-linecap="round" stroke-linejoin="round"/>
<path opacity="0.8" d="M12.1154 124.195H11.8398" stroke="#040306" stroke-width="0.11127" stroke-miterlimit="10" stroke-linecap="round" stroke-linejoin="round"/>
<path opacity="0.8" d="M11.1058 124.195H10.832" stroke="#040306" stroke-width="0.11127" stroke-miterlimit="10" stroke-linecap="round" stroke-linejoin="round"/>
<path opacity="0.8" d="M14.457 126.157V126.016" stroke="#040306" stroke-width="0.11127" stroke-miterlimit="10" stroke-linecap="round" stroke-linejoin="round"/>
<path opacity="0.8" d="M14.457 125.633V125.492" stroke="#040306" stroke-width="0.11127" stroke-miterlimit="10" stroke-linecap="round" stroke-linejoin="round"/>
<path opacity="0.8" d="M14.8035 125.824H14.6562" stroke="#040306" stroke-width="0.11127" stroke-miterlimit="10" stroke-linecap="round" stroke-linejoin="round"/>
<path opacity="0.8" d="M14.2584 125.824H14.1094" stroke="#040306" stroke-width="0.11127" stroke-miterlimit="10" stroke-linecap="round" stroke-linejoin="round"/>
<path opacity="0.8" d="M14.4553 126.018C14.5644 126.018 14.6529 125.933 14.6529 125.827C14.6529 125.722 14.5644 125.637 14.4553 125.637C14.3462 125.637 14.2578 125.722 14.2578 125.827C14.2578 125.933 14.3462 126.018 14.4553 126.018Z" stroke="#040306" stroke-width="0.11127" stroke-miterlimit="10" stroke-linecap="round" stroke-linejoin="round"/>
<path opacity="0.8" d="M14.4553 122.752C14.5644 122.752 14.6529 122.667 14.6529 122.562C14.6529 122.456 14.5644 122.371 14.4553 122.371C14.3462 122.371 14.2578 122.456 14.2578 122.562C14.2578 122.667 14.3462 122.752 14.4553 122.752Z" stroke="#040306" stroke-width="0.11127" stroke-miterlimit="10" stroke-linecap="round" stroke-linejoin="round"/>
<path opacity="0.8" d="M14.457 122.896V122.754" stroke="#040306" stroke-width="0.11127" stroke-miterlimit="10" stroke-linecap="round" stroke-linejoin="round"/>
<path opacity="0.8" d="M14.457 122.377V122.234" stroke="#040306" stroke-width="0.11127" stroke-miterlimit="10" stroke-linecap="round" stroke-linejoin="round"/>
<path opacity="0.8" d="M14.8035 122.562H14.6562" stroke="#040306" stroke-width="0.11127" stroke-miterlimit="10" stroke-linecap="round" stroke-linejoin="round"/>
<path opacity="0.8" d="M14.2584 122.562H14.1094" stroke="#040306" stroke-width="0.11127" stroke-miterlimit="10" stroke-linecap="round" stroke-linejoin="round"/>
<path opacity="0.8" d="M17.6304 120.751C17.4762 120.761 17.3514 120.772 17.2682 120.78C15.7573 121.037 14.7453 121.349 13.2344 121.606C13.3279 122.384 13.3903 123.252 13.3903 124.196C13.3903 125.142 13.3279 126.014 13.2344 126.795C14.7453 127.052 15.7573 127.354 17.2682 127.611C17.3514 127.619 17.4779 127.631 17.6304 127.641C18.5366 127.697 20.0632 127.793 21.439 127.08C21.6608 126.966 22.1078 126.729 22.5358 126.276C22.7923 126.006 23.4525 125.287 23.4525 124.222C23.4525 124.214 23.4525 124.206 23.4507 124.196C23.4507 124.187 23.4525 124.179 23.4525 124.169C23.4525 123.105 22.7923 122.385 22.5358 122.115C22.1078 121.664 21.6608 121.427 21.439 121.311C20.0632 120.596 18.5366 120.693 17.6304 120.751Z" stroke="#040306" stroke-width="0.11127" stroke-miterlimit="10" stroke-linecap="round" stroke-linejoin="round"/>
<path opacity="0.8" d="M17.8876 121.311C17.4336 121.372 16.9242 121.445 16.4026 121.787C15.758 122.208 15.4964 122.775 15.4149 122.961C15.1914 123.465 15.1914 123.892 15.1914 124.193C15.1914 124.491 15.1914 124.92 15.4149 125.424C15.4964 125.608 15.758 126.175 16.4026 126.598C16.9242 126.94 17.4336 127.014 17.8876 127.074C18.4663 127.152 19.9807 127.352 21.3444 126.502C21.684 126.29 22.3997 125.835 22.696 124.963C22.7566 124.783 22.9455 124.158 22.696 123.423C22.3997 122.551 21.684 122.097 21.3444 121.885C19.9807 121.033 18.4663 121.235 17.8876 121.311Z" stroke="#040306" stroke-width="0.11127" stroke-miterlimit="10" stroke-linecap="round" stroke-linejoin="round"/>
<path opacity="0.8" d="M16.4633 122.409C15.7684 123.084 15.7719 123.966 15.7736 124.196C15.7719 124.427 15.7702 125.307 16.4633 125.983C17.0767 126.58 17.9205 126.709 18.5894 126.706C19.0035 126.703 19.3206 126.671 19.577 126.628C20.213 126.52 20.8523 126.413 21.4016 125.967C21.8348 125.615 22.2905 124.989 22.2819 124.191C22.2715 123.248 21.6182 122.639 21.3912 122.452C20.8212 121.981 20.1575 121.867 19.577 121.766C19.3414 121.724 19.0156 121.689 18.5894 121.688C17.9205 121.681 17.0767 121.812 16.4633 122.409Z" stroke="#040306" stroke-width="0.11127" stroke-miterlimit="10" stroke-linecap="round" stroke-linejoin="round"/>
<path opacity="0.8" d="M16.8265 123.302C16.7173 123.338 16.5405 123.413 16.3777 123.563C16.2858 123.648 16.2252 123.734 16.1836 123.802C16.1836 123.804 16.1836 123.805 16.1836 123.805C16.1836 124.165 16.1836 124.22 16.1836 124.576C16.1836 124.578 16.1836 124.58 16.1836 124.58C16.2252 124.649 16.2858 124.734 16.3777 124.818C16.5405 124.969 16.7173 125.044 16.8265 125.08C17.3272 125.094 17.828 125.105 18.327 125.119C18.3946 125.115 18.6476 125.094 18.8555 124.908C19.0184 124.764 19.0652 124.598 19.0808 124.532C19.0808 124.305 19.0808 124.076 19.0808 123.849C19.0652 123.782 19.0184 123.617 18.8555 123.472C18.6476 123.287 18.3946 123.265 18.327 123.262C17.8263 123.277 17.3255 123.29 16.8265 123.302Z" stroke="#040306" stroke-width="0.11127" stroke-miterlimit="10" stroke-linecap="round" stroke-linejoin="round"/>
<path opacity="0.8" d="M17.418 123.285C17.5063 123.395 17.7472 123.716 17.7507 124.182C17.7541 124.661 17.5063 124.994 17.418 125.101" stroke="#040306" stroke-width="0.11127" stroke-miterlimit="10" stroke-linecap="round" stroke-linejoin="round"/>
<path opacity="0.8" d="M9.24219 120.519V127.87C9.24219 127.969 9.33229 128.049 9.44319 128.049C9.44319 128.049 11.3042 128.049 11.5034 128.049C11.6126 128.026 11.7547 127.991 11.9141 127.931C12.0735 127.872 12.2503 127.789 12.4287 127.673C12.6644 127.518 12.8411 127.348 12.9711 127.19C13.101 127.033 13.1859 126.89 13.2362 126.794C13.283 126.404 13.3228 125.992 13.3506 125.557C13.3783 125.123 13.3939 124.669 13.3939 124.194C13.3939 123.722 13.3783 123.269 13.3506 122.838C13.3228 122.406 13.2847 121.994 13.2362 121.606C13.1981 121.52 13.134 121.391 13.03 121.247C12.926 121.102 12.7805 120.942 12.5829 120.791C12.3681 120.63 12.1498 120.524 11.9592 120.456C11.7685 120.388 11.6057 120.356 11.5034 120.34C11.2764 120.34 9.44319 120.34 9.44319 120.34C9.33229 120.34 9.24219 120.419 9.24219 120.519Z" stroke="#040306" stroke-width="0.11127" stroke-miterlimit="10" stroke-linecap="round" stroke-linejoin="round"/>
</g>
<g opacity="0.8">
<path opacity="0.8" d="M35.2233 100.134C35.2233 100.404 34.9928 100.623 34.7104 100.623C34.4279 100.623 34.1992 100.404 34.1992 100.134C34.1992 99.8634 34.4279 99.6445 34.7104 99.6445C34.9928 99.6429 35.2233 99.8617 35.2233 100.134Z" stroke="#040306" stroke-width="0.11127" stroke-miterlimit="10" stroke-linecap="round" stroke-linejoin="round"/>
<path opacity="0.8" d="M33.9609 100.137H35.4546" stroke="#040306" stroke-width="0.11127" stroke-miterlimit="10" stroke-linecap="round" stroke-linejoin="round"/>
<path opacity="0.8" d="M34.707 100.851V99.4219" stroke="#040306" stroke-width="0.11127" stroke-miterlimit="10" stroke-linecap="round" stroke-linejoin="round"/>
<path opacity="0.8" d="M35.0745 97.7851C35.0745 97.979 34.9099 98.1365 34.7072 98.1365C34.5045 98.1365 34.3398 97.979 34.3398 97.7851C34.3398 97.5911 34.5045 97.4336 34.7072 97.4336C34.9099 97.4336 35.0745 97.5911 35.0745 97.7851Z" stroke="#040306" stroke-width="0.11127" stroke-miterlimit="10" stroke-linecap="round" stroke-linejoin="round"/>
<path opacity="0.8" d="M34.125 97.7852H35.2981" stroke="#040306" stroke-width="0.11127" stroke-miterlimit="10" stroke-linecap="round" stroke-linejoin="round"/>
<path opacity="0.8" d="M34.707 98.3489V97.2266" stroke="#040306" stroke-width="0.11127" stroke-miterlimit="10" stroke-linecap="round" stroke-linejoin="round"/>
<path opacity="0.8" d="M40.2408 99.9288C40.2599 99.6768 40.272 99.3651 40.2599 99.007C40.2547 98.8678 40.2408 98.6008 40.1975 98.2643C40.1611 97.9874 40.1022 97.6442 40 97.253C39.8891 96.9363 39.7799 96.6213 39.669 96.3047C39.669 96.3047 39.6673 96.3047 39.6656 96.3047C39.5252 96.3047 29.7161 96.3047 29.6745 96.3047H29.671C29.5601 96.6213 29.451 96.9363 29.3401 97.253C29.2378 97.6442 29.1789 97.9874 29.1425 98.2643C29.0992 98.5992 29.0853 98.8661 29.0801 99.007C29.0663 99.3651 29.0784 99.6768 29.0992 99.9288C29.1061 100.279 29.1928 102.518 31.0901 103.981C32.4937 105.063 34.0653 105.086 34.67 105.086C35.2748 105.086 36.8464 105.065 38.2499 103.981C40.1473 102.517 40.2339 100.279 40.2408 99.9288Z" stroke="#040306" stroke-width="0.11127" stroke-miterlimit="10" stroke-linecap="round" stroke-linejoin="round"/>
<path opacity="0.8" d="M38.7117 100.477C38.7238 100.354 38.7342 100.188 38.6736 99.9908C38.6701 99.9808 38.6667 99.9725 38.6649 99.9642C38.6649 99.9642 38.6026 99.7918 38.4657 99.636C37.7448 98.8203 34.709 98.8203 34.709 98.8203C33.0404 98.8203 31.6369 98.9065 31.0079 99.6343C30.8606 99.7951 30.8155 99.9394 30.8086 99.9626C30.7306 100.18 30.7584 100.442 30.7601 100.475C30.7774 100.725 30.7861 100.85 30.8242 101.029C31.0425 102.056 31.4913 102.695 31.4913 102.695C31.8257 103.171 32.1913 103.459 32.382 103.607C32.5344 103.726 32.7684 103.905 33.1062 104.069C33.8461 104.429 34.5271 104.447 34.709 104.449C35.5113 104.454 36.1004 104.192 36.3673 104.069C36.5631 103.968 36.8195 103.819 37.0916 103.607C37.2787 103.461 37.6461 103.172 37.9822 102.695C37.9822 102.695 38.4362 102.05 38.6493 101.029C38.6719 100.918 38.684 100.77 38.7117 100.477Z" stroke="#040306" stroke-width="0.11127" stroke-miterlimit="10" stroke-linecap="round" stroke-linejoin="round"/>
</g>
<path d="M14.7538 2.88281V6.41076H13.832V10.6433H5.16991V134.131H51.5247V143.875H55.4875V148.285H46.8254V138.321H0.5625V2.88281H14.7538Z" fill="#040306" stroke="#040306" stroke-width="0.441834" stroke-miterlimit="10" stroke-linecap="round" stroke-linejoin="round"/>
<path d="M42.9177 2.88281H31.3516V6.49531H32.8036V10.6433H41.4657V6.49531H42.9177V2.88281Z" fill="#040306" stroke="#040306" stroke-width="0.441834" stroke-miterlimit="10" stroke-linecap="round" stroke-linejoin="round"/>
<path d="M82.2148 2.88281V6.41076H83.1366V10.5985H92.2596V143.611H77.2383V148.107H96.4078V2.88281H82.2148Z" fill="#040306" stroke="#040306" stroke-width="0.441834" stroke-miterlimit="10" stroke-linecap="round" stroke-linejoin="round"/>
<path d="M96.3142 0.414062H85.5312V3.191H96.3142V0.414062Z" fill="#040306" stroke="#040306" stroke-width="0.441834" stroke-miterlimit="10" stroke-linecap="round" stroke-linejoin="round"/>
<path d="M28.5574 18.2526L27.944 18.8395C27.892 18.8876 27.8296 18.9124 27.7569 18.9124C27.5784 18.9124 27.4883 18.8279 27.4883 18.6571C27.4883 18.5875 27.5143 18.5278 27.5645 18.4797L28.6094 17.48C28.6787 17.4137 28.7515 17.3789 28.8242 17.3789C29.0027 17.3789 29.0911 17.4635 29.0911 17.6342V22.2348C29.0911 22.4056 29.0027 22.4901 28.8242 22.4901C28.6458 22.4901 28.5574 22.4056 28.5574 22.2348V18.2526Z" fill="#040306"/>
<path d="M31.3828 19.9359H30.8491C30.6707 19.9359 30.5823 19.8514 30.5823 19.6806C30.5823 19.5099 30.6707 19.4253 30.8491 19.4253H31.3828C31.6064 19.4253 31.797 19.3507 31.9512 19.2032C32.1071 19.0539 32.1834 18.8732 32.1834 18.6594C32.1834 18.4472 32.1054 18.2665 31.9494 18.1172C31.7935 17.968 31.6046 17.8934 31.3828 17.8934H30.3137C30.1352 17.8934 30.0469 17.8089 30.0469 17.6381C30.0469 17.4674 30.1352 17.3828 30.3137 17.3828H31.3828C31.7519 17.3828 32.0673 17.5088 32.3289 17.7591C32.5888 18.0095 32.7188 18.3112 32.7188 18.661C32.7188 19.0838 32.5403 19.4253 32.1851 19.6839C32.5421 19.9426 32.7188 20.2824 32.7188 20.7068V21.2175C32.7188 21.5706 32.5871 21.8723 32.3255 22.1227C32.0638 22.3713 31.7484 22.4957 31.3828 22.4957H30.3137C30.1352 22.4957 30.0469 22.4111 30.0469 22.2404C30.0469 22.0696 30.1352 21.9851 30.3137 21.9851H31.3828C31.6064 21.9851 31.797 21.9105 31.9512 21.7629C32.1071 21.6137 32.1834 21.433 32.1834 21.2191V20.7085C32.1834 20.4963 32.1054 20.3156 31.9494 20.1664C31.7935 20.0172 31.6046 19.9359 31.3828 19.9359Z" fill="#040306"/>
<path d="M33.9651 21.9805C34.1436 21.9805 34.232 22.065 34.232 22.2325C34.232 22.2557 34.1401 22.6187 33.9564 23.32C33.9235 23.4493 33.8369 23.514 33.6965 23.514C33.5181 23.514 33.4297 23.4294 33.4297 23.2587C33.4297 23.1426 33.5215 22.7812 33.7052 22.1744C33.7433 22.0451 33.83 21.9805 33.9651 21.9805Z" fill="#040306"/>
<path d="M35.0664 21.2136C35.0664 21.1854 35.0699 21.1622 35.0751 21.1439L36.1442 17.5646C36.1823 17.4402 36.2689 17.3789 36.4041 17.3789C36.5826 17.3789 36.6709 17.4651 36.6709 17.6359C36.6709 17.6591 36.6675 17.684 36.6623 17.7088L35.6885 20.9582H36.9395V20.1907C36.9395 20.0199 37.0279 19.9353 37.2064 19.9353C37.3848 19.9353 37.4732 20.0199 37.4732 20.1907V20.9582H38.0069C38.1854 20.9582 38.2737 21.0428 38.2737 21.2136C38.2737 21.3843 38.1854 21.4689 38.0069 21.4689H37.4732V22.2365C37.4732 22.4072 37.3848 22.4918 37.2064 22.4918C37.0279 22.4918 36.9395 22.4072 36.9395 22.2365V21.4689H35.3367C35.1565 21.4689 35.0664 21.3827 35.0664 21.2136Z" fill="#040306"/>
<path d="M40.0977 20.1929H39.8985C39.72 20.1929 39.6299 20.1084 39.6299 19.9376C39.6299 19.7668 39.7182 19.6823 39.8967 19.6823H40.2121L40.6314 17.8934H38.8293C38.6509 17.8934 38.5625 17.8089 38.5625 17.6381C38.5625 17.4674 38.6509 17.3828 38.8293 17.3828H40.9658C41.1408 17.3828 41.2309 17.4657 41.2327 17.6315C41.2327 17.6464 41.2292 17.668 41.224 17.6928L40.7614 19.6839H40.9641C41.1426 19.6839 41.2309 19.7685 41.2309 19.9392C41.2309 20.11 41.1408 20.1946 40.9624 20.1946H40.6366L40.1532 22.2951C40.1202 22.4294 40.0353 22.4957 39.8985 22.4957C39.7182 22.4957 39.6264 22.4111 39.6264 22.2404C39.6264 22.2138 39.6281 22.1956 39.6316 22.1823L40.0977 20.1929Z" fill="#040306"/>
<path d="M76.3946 118.684H75.8609C75.6824 118.684 75.594 118.599 75.594 118.428C75.594 118.258 75.6824 118.173 75.8609 118.173H76.3946C76.6181 118.173 76.8087 118.098 76.9629 117.951C77.1171 117.803 77.1951 117.621 77.1951 117.407C77.1951 117.195 77.1171 117.014 76.9612 116.865C76.8052 116.716 76.6163 116.64 76.3946 116.64H75.3254C75.147 116.64 75.0586 116.555 75.0586 116.384C75.0586 116.213 75.147 116.129 75.3254 116.129H76.3946C76.7636 116.129 77.079 116.253 77.3406 116.505C77.6006 116.756 77.7305 117.057 77.7305 117.407C77.7305 117.83 77.552 118.171 77.1968 118.43C77.5538 118.689 77.7305 119.029 77.7305 119.453V119.964C77.7305 120.317 77.5988 120.618 77.3372 120.869C77.0755 121.117 76.7602 121.242 76.3946 121.242H75.3254C75.147 121.242 75.0586 121.157 75.0586 120.986C75.0586 120.816 75.147 120.731 75.3254 120.731H76.3946C76.6181 120.731 76.8087 120.657 76.9629 120.509C77.1171 120.361 77.1951 120.179 77.1951 119.965V119.455C77.1951 119.242 77.1171 119.062 76.9612 118.912C76.8052 118.763 76.6146 118.684 76.3946 118.684Z" fill="#040306"/>
<path d="M78.9729 120.727C79.1514 120.727 79.2398 120.811 79.2398 120.979C79.2398 121.002 79.1479 121.365 78.9643 122.066C78.9313 122.195 78.8447 122.26 78.7044 122.26C78.5259 122.26 78.4375 122.176 78.4375 122.005C78.4375 121.889 78.5293 121.527 78.713 120.921C78.7511 120.791 78.8378 120.727 78.9729 120.727Z" fill="#040306"/>
<path d="M81.4336 121.238C81.0645 121.238 80.7492 121.114 80.4875 120.865C80.2259 120.616 80.0977 120.314 80.0977 119.96V119.449C80.0977 119.026 80.2761 118.685 80.6313 118.426C80.2744 118.167 80.0977 117.828 80.0977 117.403C80.0977 117.05 80.2276 116.748 80.4875 116.498C80.7474 116.248 81.0628 116.125 81.4336 116.125C81.8044 116.125 82.1181 116.249 82.3797 116.498C82.6396 116.747 82.7696 117.048 82.7696 117.403C82.7696 117.826 82.5911 118.167 82.2359 118.426C82.4923 118.612 82.6535 118.841 82.7211 119.112C82.754 119.25 82.7696 119.532 82.7696 119.961C82.7696 120.314 82.6396 120.616 82.3797 120.867C82.1181 121.114 81.8027 121.238 81.4336 121.238ZM81.4336 118.169C81.6571 118.169 81.8477 118.095 82.002 117.947C82.1562 117.799 82.2342 117.617 82.2342 117.403C82.2342 117.191 82.1562 117.01 82.0002 116.861C81.8443 116.712 81.6554 116.636 81.4336 116.636C81.2101 116.636 81.0195 116.71 80.8653 116.858C80.7093 117.007 80.6331 117.188 80.6331 117.402C80.6331 117.615 80.7111 117.798 80.8653 117.945C81.0195 118.096 81.2101 118.169 81.4336 118.169ZM81.4336 120.726C81.6571 120.726 81.8477 120.651 82.002 120.503C82.1562 120.356 82.2342 120.174 82.2342 119.96V119.449C82.2342 119.237 82.1562 119.056 82.0002 118.907C81.8443 118.758 81.6554 118.681 81.4336 118.681C81.2101 118.681 81.0195 118.756 80.8653 118.904C80.7093 119.053 80.6331 119.234 80.6331 119.447V119.958C80.6331 120.172 80.7111 120.354 80.8653 120.502C81.0195 120.651 81.2101 120.726 81.4336 120.726Z" fill="#040306"/>
<path d="M84.9314 118.684H84.3978C84.2193 118.684 84.1309 118.599 84.1309 118.428C84.1309 118.258 84.2193 118.173 84.3978 118.173H84.9314C85.155 118.173 85.3456 118.098 85.4998 117.951C85.654 117.803 85.732 117.621 85.732 117.407C85.732 117.195 85.654 117.014 85.4981 116.865C85.3421 116.716 85.1532 116.64 84.9314 116.64H83.8623C83.6839 116.64 83.5955 116.555 83.5955 116.384C83.5955 116.213 83.6839 116.129 83.8623 116.129H84.9314C85.3005 116.129 85.6159 116.253 85.8758 116.505C86.1357 116.757 86.2657 117.057 86.2657 117.407C86.2657 117.83 86.0872 118.171 85.732 118.43C86.0889 118.689 86.2657 119.029 86.2657 119.453V119.964C86.2657 120.317 86.134 120.618 85.8723 120.869C85.6107 121.117 85.2971 121.242 84.9297 121.242H83.8606C83.6821 121.242 83.5938 121.157 83.5938 120.986C83.5938 120.816 83.6821 120.731 83.8606 120.731H84.9297C85.1532 120.731 85.3438 120.657 85.4981 120.509C85.6523 120.361 85.7302 120.179 85.7302 119.965V119.455C85.7302 119.242 85.6523 119.062 85.4963 118.912C85.3404 118.763 85.1532 118.684 84.9314 118.684Z" fill="#040306"/>
<path d="M28.7131 75.0742C29.0822 75.0742 29.3976 75.1986 29.6592 75.4472C29.9191 75.6959 30.0491 75.9977 30.0491 76.3524C30.0491 76.5945 29.9676 76.8398 29.8065 77.0885L28.1223 79.6765H29.7822C29.9607 79.6765 30.0491 79.761 30.0491 79.9318C30.0491 80.1025 29.9607 80.1871 29.7822 80.1871H27.6458C27.4673 80.1871 27.3789 80.1025 27.3789 79.9318C27.3789 79.8804 27.3945 79.8306 27.424 79.7842L29.382 76.7752C29.4703 76.6376 29.5154 76.4983 29.5154 76.3524C29.5154 76.1402 29.4374 75.9595 29.2815 75.8103C29.1255 75.6611 28.9367 75.5848 28.7149 75.5848C28.4134 75.5848 28.1327 75.7987 27.8762 76.2281C27.8277 76.311 27.7515 76.3524 27.6458 76.3524C27.4673 76.3524 27.3789 76.2679 27.3789 76.0971C27.3789 76.059 27.3876 76.0242 27.4032 75.9927C27.7341 75.3793 28.1708 75.0742 28.7131 75.0742Z" fill="#040306"/>
<path d="M31.4378 79.6719C31.6162 79.6719 31.7046 79.7564 31.7046 79.9239C31.7046 79.9471 31.6128 80.3102 31.4291 81.0114C31.3962 81.1407 31.3095 81.2054 31.1692 81.2054C30.9907 81.2054 30.9023 81.1209 30.9023 80.9501C30.9023 80.834 30.9942 80.4726 31.1779 79.8658C31.216 79.7365 31.3026 79.6719 31.4378 79.6719Z" fill="#040306"/>
<path d="M33.1851 80.1848C33.114 80.1848 33.0534 80.1583 32.9997 80.1069C32.946 80.0555 32.9182 79.9958 32.9182 79.9279C32.9182 79.8085 32.9633 79.7356 33.0517 79.7074C33.2457 79.646 33.4086 79.5747 33.5368 79.4935C34.1121 79.1371 34.4327 78.6845 34.5002 78.1374H33.7188C33.3497 78.1374 33.0343 78.013 32.7727 77.7644C32.511 77.5157 32.3828 77.2139 32.3828 76.8592V76.3485C32.3828 75.9954 32.5128 75.6937 32.7727 75.4433C33.0326 75.193 33.348 75.0703 33.7188 75.0703C34.0913 75.0703 34.4067 75.193 34.6666 75.44C34.9265 75.687 35.0547 75.9871 35.0547 76.3402V77.8821C35.0547 78.7491 34.6319 79.4355 33.7881 79.9395C33.516 80.1036 33.315 80.1848 33.1851 80.1848ZM34.521 77.6284V76.3502C34.521 76.138 34.4431 75.9573 34.2871 75.8081C34.1312 75.6589 33.9423 75.5826 33.7205 75.5826C33.4987 75.5826 33.3098 75.6572 33.1539 75.8081C32.9979 75.9573 32.92 76.138 32.92 76.3502V76.8608C32.92 77.0747 32.9979 77.257 33.1522 77.4046C33.3081 77.5538 33.497 77.6268 33.7205 77.6268H34.521V77.6284Z" fill="#040306"/>
<path d="M37.3477 80.1871C36.9786 80.1871 36.6632 80.0628 36.4016 79.8141C36.1399 79.5654 36.0117 79.2637 36.0117 78.9089V78.3982C36.0117 77.9755 36.1902 77.634 36.5454 77.3753C36.1885 77.1167 36.0117 76.7769 36.0117 76.3524C36.0117 75.9993 36.1417 75.6976 36.4016 75.4472C36.6615 75.1969 36.9769 75.0742 37.3477 75.0742C37.7185 75.0742 38.0321 75.1986 38.2938 75.4472C38.5537 75.6959 38.6836 75.9977 38.6836 76.3524C38.6836 76.7752 38.5052 77.1167 38.1499 77.3753C38.4064 77.561 38.5675 77.7898 38.6351 78.0617C38.668 78.1993 38.6836 78.4811 38.6836 78.9105C38.6836 79.2637 38.5537 79.5654 38.2938 79.8157C38.0321 80.0628 37.7168 80.1871 37.3477 80.1871ZM37.3477 77.1184C37.5712 77.1184 37.7618 77.0438 37.916 76.8962C38.0702 76.7487 38.1482 76.5663 38.1482 76.3524C38.1482 76.1402 38.0702 75.9595 37.9143 75.8103C37.7583 75.6611 37.5695 75.5848 37.3477 75.5848C37.1242 75.5848 36.9336 75.6594 36.7793 75.807C36.6234 75.9562 36.5471 76.1369 36.5471 76.3508C36.5471 76.5646 36.6251 76.747 36.7793 76.8946C36.9336 77.0454 37.1224 77.1184 37.3477 77.1184ZM37.3477 79.6748C37.5712 79.6748 37.7618 79.6002 37.916 79.4527C38.0702 79.3051 38.1482 79.1227 38.1482 78.9089V78.3982C38.1482 78.186 38.0702 78.0053 37.9143 77.8561C37.7583 77.7069 37.5695 77.6307 37.3477 77.6307C37.1242 77.6307 36.9336 77.7053 36.7793 77.8528C36.6234 78.002 36.5471 78.1827 36.5471 78.3966V78.9072C36.5471 79.1211 36.6251 79.3034 36.7793 79.451C36.9336 79.6002 37.1224 79.6748 37.3477 79.6748Z" fill="#040306"/>
<path d="M28.711 119.68H28.1773C27.9988 119.68 27.9104 119.595 27.9104 119.424C27.9104 119.254 27.9988 119.169 28.1773 119.169H28.711C28.9345 119.169 29.1251 119.095 29.2793 118.947C29.4335 118.799 29.5115 118.617 29.5115 118.403C29.5115 118.191 29.4335 118.01 29.2776 117.861C29.1216 117.712 28.9327 117.636 28.711 117.636H27.6418C27.4634 117.636 27.375 117.551 27.375 117.38C27.375 117.21 27.4634 117.125 27.6418 117.125H28.711C29.08 117.125 29.3954 117.249 29.657 117.501C29.917 117.752 30.0469 118.053 30.0469 118.403C30.0469 118.826 29.8684 119.167 29.5132 119.426C29.8702 119.685 30.0469 120.025 30.0469 120.449V120.96C30.0469 121.313 29.9152 121.615 29.6536 121.865C29.3919 122.114 29.0766 122.238 28.711 122.238H27.6418C27.4634 122.238 27.375 122.153 27.375 121.983C27.375 121.812 27.4634 121.727 27.6418 121.727H28.711C28.9345 121.727 29.1251 121.653 29.2793 121.505C29.4335 121.358 29.5115 121.175 29.5115 120.961V120.447C29.5115 120.235 29.4335 120.054 29.2776 119.905C29.1216 119.756 28.9327 119.68 28.711 119.68Z" fill="#040306"/>
<path d="M31.2893 121.723C31.4678 121.723 31.5562 121.807 31.5562 121.975C31.5562 121.998 31.4643 122.361 31.2807 123.062C31.2477 123.192 31.1611 123.256 31.0207 123.256C30.8423 123.256 30.7539 123.172 30.7539 123.001C30.7539 122.885 30.8457 122.523 31.0294 121.917C31.0693 121.787 31.1559 121.723 31.2893 121.723Z" fill="#040306"/>
<path d="M33.8516 117.121C34.2207 117.121 34.536 117.245 34.7977 117.494C35.0576 117.743 35.1875 118.045 35.1875 118.399C35.1875 118.641 35.1061 118.887 34.945 119.135L33.2607 121.723H34.9207C35.0992 121.723 35.1875 121.808 35.1875 121.979C35.1875 122.149 35.0992 122.234 34.9207 122.234H32.7825C32.604 122.234 32.5156 122.149 32.5156 121.979C32.5156 121.927 32.5312 121.878 32.5607 121.831L34.5187 118.822C34.6071 118.684 34.6521 118.545 34.6521 118.399C34.6521 118.187 34.5741 118.006 34.4182 117.857C34.2622 117.708 34.0734 117.632 33.8516 117.632C33.5501 117.632 33.2694 117.846 33.0129 118.275C32.9644 118.358 32.8882 118.399 32.7825 118.399C32.604 118.399 32.5156 118.315 32.5156 118.144C32.5156 118.106 32.5243 118.071 32.5399 118.04C32.8726 117.428 33.3092 117.121 33.8516 117.121Z" fill="#040306"/>
<path d="M37.9595 117.121C38.138 117.121 38.2263 117.206 38.2263 117.376C38.2263 117.502 38.1813 117.577 38.0929 117.597C37.6961 117.693 37.3496 117.92 37.0533 118.278C36.8193 118.562 36.6824 118.859 36.6443 119.165H37.4258C37.8035 119.165 38.1206 119.29 38.3771 119.537C38.6335 119.785 38.7618 120.087 38.7618 120.443V120.954C38.7618 121.311 38.6318 121.612 38.3719 121.861C38.112 122.11 37.7966 122.232 37.4258 122.232C37.0533 122.232 36.7379 122.11 36.478 121.863C36.2181 121.616 36.0898 121.316 36.0898 120.962V119.421C36.0898 118.842 36.2908 118.335 36.6928 117.899C37.0065 117.56 37.3478 117.32 37.7169 117.177C37.8209 117.141 37.9023 117.121 37.9595 117.121ZM36.6235 119.678V120.956C36.6235 121.17 36.7015 121.352 36.8557 121.5C37.0117 121.649 37.2005 121.722 37.4241 121.722C37.6476 121.722 37.8382 121.647 37.9924 121.498C38.1466 121.349 38.2246 121.168 38.2246 120.956V120.445C38.2246 120.231 38.1466 120.049 37.9907 119.901C37.8347 119.754 37.6459 119.679 37.4241 119.679H36.6235V119.678Z" fill="#040306"/>
</svg>
